# xmcd
#
# Track frame offsets:
#       150
#       15902
#       26367
#       41438
#       54657
#       63762
#       76819
#       91176
#       100256
#       114062
#       129557
#       145185
#       158902
#       167955
#       179963
#       190105
#       203151
#       219224
#
# Disc length: 3171 seconds
#
# Revision: 1
# Processed by: cddbd v1.4PL0 Copyright (c) Steve Scherf et al.
# Submitted via: MusiCat 1.1
#
DISCID=e30c6112
DTITLE=Marilyn Monroe - The very best of ....
DYEAR=1900
DGENRE=
TTITLE0=Diamonds ar a girls best friend
TTITLE1=A fine romance
TTITLE2=That old black magic
TTITLE3=When I fall in love
TTITLE4=Happy Birthday Mr President
TTITLE5=Every Baby needs a da da daddy
TTITLE6=Do it again
TTITLE7=Kiss
TTITLE8=Two little girls from little rock
TTITLE9=When love goes wrong
TTITLE10=Bye bye baby
TTITLE11=You'd be surprised
TTITLE12=One silver dollar
TTITLE13=I'm gonna file my claim
TTITLE14=The river of no return
TTITLE15=Down in the meadow
TTITLE16=After you get what you want you don't want it
TTITLE17=Heat wave
EXTD=0\n\n\n
EXTT0=
EXTT1=
EXTT2=
EXTT3=
EXTT4=
EXTT5=
EXTT6=
EXTT7=
EXTT8=
EXTT9=
EXTT10=
EXTT11=
EXTT12=
EXTT13=
EXTT14=
EXTT15=
EXTT16=
EXTT17=
PLAYORDER=
